Coordinates
version=1
nRows=13
nColumns=38
inDegrees=no

Units are S.I. units (second, meters, Newtons, ...)
If the header above contains a line with 'inDegrees', this indicates whether rotational values are in degrees (yes) or radians (no).

endheader
time	pelvis_tilt	pelvis_list	pelvis_rotation	pelvis_tx	pelvis_ty	pelvis_tz	hip_flexion_r	hip_adduction_r	hip_rotation_r	knee_angle_r	ankle_angle_r	subtalar_angle_r	mtp_angle_r	hip_flexion_l	hip_adduction_l	hip_rotation_l	knee_angle_l	ankle_angle_l	subtalar_angle_l	mtp_angle_l	lumbar_extension	lumbar_bending	lumbar_rotation	arm_flex_r	arm_add_r	arm_rot_r	elbow_flex_r	pro_sup_r	wrist_flex_r	wrist_dev_r	arm_flex_l	arm_add_l	arm_rot_l	elbow_flex_l	pro_sup_l	wrist_flex_l	wrist_dev_l
0.62	-1.57788	1.44545	3.02155	0.73022	-0.205259	0.992223	0.188759	-0.266686	-0.0312093	1.13433	-0.0786044	0	0	0.279994	0.128784	-0.294687	0.392353	0.0627102	0	0	-0.177046	-0.140466	0.156001	-0.0146368	-0.225528	0.0585131	0.35341	1.31738	0	0	0.0205881	-0.236281	0.45025	0.340908	1.19513	0	0
0.63	-1.49064	1.4341	2.9359	0.729596	-0.197252	0.99098	0.228065	-0.268393	-0.00440491	1.16981	-0.0563332	0	0	0.283129	0.141103	-0.297499	0.388352	0.0699211	0	0	-0.159807	-0.151971	0.151504	-0.0179883	-0.222285	0.0590169	0.357609	1.31545	0	0	0.0182088	-0.239045	0.445349	0.337566	1.20124	0	0
0.64	-1.45887	1.44359	2.90416	0.728567	-0.189304	0.991193	0.253676	-0.258354	0.00227015	1.19552	-0.0486017	0	0	0.273799	0.134174	-0.293297	0.385054	0.0811062	0	0	-0.155867	-0.139585	0.151343	-0.0182811	-0.226073	0.0603946	0.360244	1.31539	0	0	0.019019	-0.233904	0.444921	0.330716	1.20046	0	0
0.65	-1.43981	1.44393	2.88667	0.727493	-0.182017	0.991884	0.281485	-0.261048	0.00676143	1.2194	-0.0452941	0	0	0.263793	0.136697	-0.293764	0.377285	0.0849078	0	0	-0.154406	-0.138057	0.148085	-0.0146269	-0.227144	0.0644933	0.359777	1.31478	0	0	0.024035	-0.229545	0.443057	0.320013	1.20157	0	0
0.66	-1.42099	1.44289	2.8681	0.72649	-0.174814	0.992428	0.309954	-0.263302	0.0152072	1.23905	-0.0399911	0	0	0.254026	0.140385	-0.295202	0.368761	0.0870612	0	0	-0.152405	-0.138305	0.147003	-0.00774666	-0.224101	0.0424477	0.350531	1.35026	0	0	0.0246233	-0.236677	0.496834	0.331886	1.1319	0	0
0.67	-1.44898	1.45547	2.89287	0.724911	-0.168327	0.994796	0.330641	-0.26087	0.0111109	1.25128	-0.0466187	0	0	0.233966	0.132429	-0.295481	0.357384	0.0862698	0	0	-0.164159	-0.122944	0.147177	-0.00269536	-0.239855	0.108816	0.362022	1.26565	0	0	0.0371175	-0.213693	0.431647	0.298129	1.20613	0	0
0.68	-1.43944	1.45453	2.88146	0.723941	-0.161128	0.99517	0.357692	-0.26305	0.0211276	1.26337	-0.0415546	0	0	0.222889	0.136382	-0.297394	0.348166	0.0881529	0	0	-0.163659	-0.123019	0.147016	0.00174327	-0.242442	0.117034	0.360986	1.26002	0	0	0.0390115	-0.212595	0.438292	0.297713	1.19609	0	0
0.69	-1.44109	1.45451	2.8824	0.722916	-0.153917	0.995586	0.381912	-0.268171	0.0249052	1.27186	-0.0355485	0	0	0.211004	0.140145	-0.296236	0.340433	0.0898746	0	0	-0.165182	-0.122334	0.145717	0.00572836	-0.245316	0.123207	0.361559	1.25624	0	0	0.0410018	-0.211702	0.44429	0.297839	1.18827	0	0
0.7	-1.43835	1.45569	2.87989	0.721874	-0.146788	0.995898	0.405114	-0.271622	0.027553	1.27665	-0.0280837	0	0	0.200365	0.142771	-0.294105	0.334354	0.0912751	0	0	-0.166763	-0.120154	0.143685	0.00954789	-0.248296	0.128153	0.362844	1.25385	0	0	0.0428082	-0.210968	0.451499	0.298222	1.18188	0	0
0.71	-1.4234	1.45783	2.8662	0.720793	-0.13984	0.996103	0.428296	-0.270553	0.0330189	1.27787	-0.0189115	0	0	0.191374	0.144226	-0.289401	0.329094	0.092807	0	0	-0.167542	-0.116492	0.141195	0.0132936	-0.251389	0.132122	0.364622	1.25237	0	0	0.0451881	-0.210227	0.458655	0.298897	1.17292	0	0
0.72	-1.41531	1.46105	2.86062	0.719702	-0.132893	0.996403	0.448512	-0.268873	0.0364724	1.27567	-0.00765613	0	0	0.181135	0.144343	-0.285094	0.324745	0.0992545	0	0	-0.169805	-0.111894	0.137734	0.0174649	-0.254179	0.135113	0.36587	1.25218	0	0	0.0485799	-0.209252	0.466075	0.298397	1.16302	0	0
0.73	-1.40684	1.46398	2.85619	0.718506	-0.125965	0.996751	0.467308	-0.268462	0.0374733	1.26941	0.00329651	0	0	0.170543	0.145245	-0.278658	0.319313	0.100654	0	0	-0.172573	-0.107362	0.132857	0.0246722	-0.2525	0.112344	0.359059	1.28868	0	0	0.0550442	-0.202525	0.443396	0.286278	1.19618	0	0
0.74	-1.40788	1.46788	2.86232	0.717321	-0.119123	0.99723	0.48295	-0.267898	0.0359437	1.25914	0.0131177	0	0	0.158718	0.145232	-0.272386	0.31414	0.102663	0	0	-0.176977	-0.102023	0.126931	0.0289509	-0.255631	0.121411	0.361626	1.28019	0	0	0.0610113	-0.19926	0.442386	0.279816	1.20132	0	0
